<?xml version="1.0" encoding="UTF-8"?>
<svg version="1.1" xmlns="http://www.w3.org/2000/svg" width="1024" height="1024">
<path d="M0 0 C337.92 0 675.84 0 1024 0 C1024 337.92 1024 675.84 1024 1024 C686.08 1024 348.16 1024 0 1024 C0 686.08 0 348.16 0 0 Z " fill="#FEFEFE" transform="translate(0,0)"/>
<path d="M0 0 C2.60451249 2.60451249 4.90736106 5.15463237 5.09765625 8.9453125 C5.06510417 10.96354167 5.03255208 12.98177083 5 15 C5.99780487 14.99555878 6.99560974 14.99111755 8.02365112 14.98654175 C17.41191414 14.94605625 26.80015952 14.9160448 36.18848991 14.89637566 C41.01550805 14.88592374 45.84245591 14.87173896 50.66943359 14.84912109 C55.32485778 14.82744278 59.98021422 14.81544199 64.63568497 14.81024551 C66.41475619 14.80654072 68.19382356 14.79930652 69.97286606 14.78853989 C72.45839294 14.77409146 74.94363733 14.77201925 77.42919922 14.77294922 C78.54050201 14.76216339 78.54050201 14.76216339 79.67425537 14.75115967 C84.77189568 14.77189568 84.77189568 14.77189568 87 17 C87.58621449 21.90102576 86.62340607 24.22856971 83.625 28.0625 C82.90828125 29.00480469 82.1915625 29.94710938 81.453125 30.91796875 C79.71143952 33.10616914 77.95379523 35.27111241 76.171875 37.42578125 C75.70700684 37.99997803 75.24213867 38.5741748 74.76318359 39.16577148 C73.85041169 40.28963995 72.9212997 41.40046629 71.97509766 42.49633789 C70.52127989 44.20637758 70.52127989 44.20637758 69 47 C70.08064627 50.81475527 72.00278255 53.56800359 74.44140625 56.65234375 C75.10720703 57.51150391 75.77300781 58.37066406 76.45898438 59.25585938 C77.86092326 61.04310365 79.267179 62.82697017 80.67773438 64.60742188 C81.34224609 65.46787109 82.00675781 66.32832031 82.69140625 67.21484375 C83.30185791 67.98948975 83.91230957 68.76413574 84.54125977 69.56225586 C86.28223933 72.47165853 86.87606309 74.61363142 87 78 C85.98114014 79.65924072 85.98114014 79.65924072 84 81 C81.3881779 81.2804392 79.01774619 81.37925334 76.4074707 81.34057617 C75.63650055 81.34101425 74.8655304 81.34145233 74.07119751 81.34190369 C71.52246795 81.33981338 68.97439592 81.31647146 66.42578125 81.29296875 C64.65887308 81.28737364 62.89196026 81.28310314 61.12504578 81.28010559 C56.47410233 81.26865008 51.82343985 81.23917687 47.17260742 81.20599365 C42.42695924 81.17530796 37.68126567 81.16160347 32.93554688 81.14648438 C23.6235546 81.11430774 14.31184462 81.0615341 5 81 C5 89.25 5 97.5 5 106 C8.96 106.33 12.92 106.66 17 107 C39.83540903 111.0580998 60.56894509 124.52700929 74.02294922 143.35913086 C87.06906602 162.48866033 92.28149474 185.77722713 88.2734375 208.69921875 C83.738807 230.74121285 71.69560335 247.96166516 55.68676758 263.31420898 C53.96063383 265.03934338 52.37148686 266.83279762 50.78125 268.68359375 C47.06605574 272.95716632 43.20977266 277.08028611 39.3125 281.1875 C34.51264313 286.26554545 29.72760964 291.35459779 25 296.5 C20.1866951 301.72704644 15.35298198 306.93476206 10.5 312.125 C9.81679688 312.86041016 9.13359375 313.59582031 8.4296875 314.35351562 C7.45902344 315.38895508 7.45902344 315.38895508 6.46875 316.4453125 C5.89576172 317.05906738 5.32277344 317.67282227 4.73242188 318.30517578 C1.56154056 321.40724146 -0.28494909 322.88082485 -4.75 323.625 C-10.30887864 323.40842031 -13.30917632 319.79500015 -17 316 C-17.598125 315.42507813 -18.19625 314.85015625 -18.8125 314.2578125 C-21.78505066 311.37815405 -24.57399556 308.37894958 -27.27734375 305.24609375 C-30.76342058 301.24420811 -34.35692074 297.35879113 -38 293.5 C-39.32164513 292.09508082 -40.64325881 290.69013206 -41.96484375 289.28515625 C-42.63370605 288.57504395 -43.30256836 287.86493164 -43.99169922 287.13330078 C-49.05116355 281.75892692 -54.09533517 276.37016146 -59.14160156 270.98339844 C-60.39060098 269.65038855 -61.63995561 268.31771141 -62.88964844 266.98535156 C-66.44480755 263.19428764 -69.99053272 259.39485654 -73.52392578 255.58349609 C-74.79584835 254.21900887 -76.08214042 252.86794206 -77.37109375 251.51953125 C-94.07131643 233.64736312 -100.00833074 211.10042787 -99.34765625 187.1875 C-98.17623162 164.48117592 -87.23718262 143.66102453 -71 128 C-58.97467732 117.4866331 -41.42572612 107 -25 107 C-24.86464844 107.87140625 -24.72929687 108.7428125 -24.58984375 109.640625 C-22.18442332 122.94965781 -17.01307055 132.79955443 -6 141 C-3.58015732 142.67810031 -1.14679562 144.30619831 1.34765625 145.87109375 C1.89292969 146.24363281 2.43820312 146.61617187 3 147 C3 147.33 3 147.66 3 148 C1.58460938 148.05607422 1.58460938 148.05607422 0.140625 148.11328125 C-12.34632273 148.75267315 -22.85490491 150.10711602 -33 158 C-34.03125 158.721875 -35.0625 159.44375 -36.125 160.1875 C-45.74144979 168.54846884 -50.38431284 182.226458 -51.25 194.5625 C-50.81242319 217.44776742 -33.88938464 231.43928293 -18.68115234 246.28271484 C-16.48263295 248.43947551 -14.71920141 250.42119788 -13 253 C-8.96328276 251.36008362 -6.1095373 248.51607305 -3 245.5625 C-1.84005431 244.47633759 -0.67989313 243.39040528 0.48046875 242.3046875 C1.06618652 241.75393555 1.6519043 241.20318359 2.25537109 240.63574219 C4.92366984 238.13397874 7.61577954 235.65855529 10.3125 233.1875 C10.8089502 232.73238037 11.30540039 232.27726074 11.81689453 231.80834961 C21.90538218 222.58165019 21.90538218 222.58165019 27.0625 218.6875 C35.77590113 210.71566492 40.15289625 200.79777747 41.2734375 189.16015625 C41.71675875 175.63885802 37.1003973 163.99884417 28 154 C22.11345107 148.31331228 15.78123311 143.61531718 9 139.0625 C-2.35416593 131.23620587 -11.56362247 124.66563835 -14.53094482 110.45777893 C-15.13207061 106.02640243 -15.15561927 101.68537212 -15.16113281 97.21850586 C-15.16858017 95.76620323 -15.16858017 95.76620323 -15.17617798 94.28456116 C-15.19073601 91.09464804 -15.19758909 87.90478457 -15.203125 84.71484375 C-15.20887934 82.49337259 -15.21463704 80.27190144 -15.22039795 78.0504303 C-15.23088818 73.39942189 -15.23674456 68.74843068 -15.24023438 64.09741211 C-15.24573123 58.13648418 -15.26979306 52.17578327 -15.29820633 46.21492672 C-15.3168177 41.62959625 -15.3220374 37.04432082 -15.32357025 32.45895576 C-15.32659799 30.26090814 -15.33463057 28.06286152 -15.34775543 25.864851 C-15.36479288 22.79375662 -15.36294179 19.72322196 -15.35644531 16.65209961 C-15.3656601 15.74442841 -15.37487488 14.8367572 -15.3843689 13.90158081 C-15.34501404 7.96835561 -14.36114739 4.6234971 -10.3125 0.125 C-6.80816293 -1.57981263 -3.59100615 -1.23141279 0 0 Z " fill="#012456" transform="translate(510,288)"/>
<path d="M0 0 C0.13535156 0.87140625 0.27070313 1.7428125 0.41015625 2.640625 C2.81557668 15.94965781 7.98692945 25.79955443 19 34 C21.41984268 35.67810031 23.85320438 37.30619831 26.34765625 38.87109375 C26.89292969 39.24363281 27.43820312 39.61617188 28 40 C28 40.33 28 40.66 28 41 C26.58460938 41.05607422 26.58460938 41.05607422 25.140625 41.11328125 C12.65367727 41.75267315 2.14509509 43.10711602 -8 51 C-9.03125 51.721875 -10.0625 52.44375 -11.125 53.1875 C-20.74144979 61.54846884 -25.38431284 75.226458 -26.25 87.5625 C-25.81335913 110.39881748 -9.06375063 124.10351288 6.00463867 138.98608398 C9.18253873 142.13590404 12.13245939 145.40159225 15.02734375 148.80859375 C17.73900743 151.82095677 20.61855042 154.65088538 23.5 157.5 C30.28747234 164.21156044 30.28747234 164.21156044 33.375 167.875 C35.74757201 170.62134996 38.18893542 173.25304889 40.75390625 175.8203125 C41.43855957 176.50625488 42.12321289 177.19219727 42.82861328 177.89892578 C45.879719 180.93872849 48.93539091 183.97380935 52 187 C48.81018543 190.78413228 45.62534802 194.49517115 42.0625 197.9375 C39.38343607 200.57072443 36.86940852 203.26232741 34.4375 206.125 C25.58203663 216.26270241 25.58203663 216.26270241 20.0625 216.8125 C14.70117338 216.37779784 11.57708589 212.67805202 8 209 C7.401875 208.42507813 6.80375 207.85015625 6.1875 207.2578125 C3.21494934 204.37815405 0.42600444 201.37894958 -2.27734375 198.24609375 C-5.76342058 194.24420811 -9.35692074 190.35879113 -13 186.5 C-14.32164513 185.09508082 -15.64325881 183.69013206 -16.96484375 182.28515625 C-17.63370605 181.57504395 -18.30256836 180.86493164 -18.99169922 180.13330078 C-24.05116355 174.75892692 -29.09533517 169.37016146 -34.14160156 163.98339844 C-35.39060098 162.65038855 -36.63995561 161.31771141 -37.88964844 159.98535156 C-41.44480755 156.19428764 -44.99053272 152.39485654 -48.52392578 148.58349609 C-49.79584835 147.21900887 -51.08214042 145.86794206 -52.37109375 144.51953125 C-69.07131643 126.64736312 -75.00833074 104.10042787 -74.34765625 80.1875 C-73.17623162 57.48117592 -62.23718262 36.66102453 -46 21 C-33.97467732 10.4866331 -16.42572612 0 0 0 Z " fill="#0078FE" transform="translate(485,395)"/>
<path d="M0 0 C19.88505636 -0.08021762 19.88505636 -0.08021762 28.33984375 -0.09765625 C34.11641091 -0.10962715 39.89291487 -0.12381176 45.66943359 -0.15087891 C50.32485778 -0.17255722 54.98021422 -0.18455801 59.63568497 -0.18975449 C61.41475619 -0.19345928 63.19382356 -0.20069348 64.97286606 -0.21146011 C67.45839294 -0.22590854 69.94363733 -0.22798075 72.42919922 -0.22705078 C73.54050201 -0.23783661 73.54050201 -0.23783661 74.67425537 -0.24884033 C79.77189568 -0.22810432 79.77189568 -0.22810432 82 2 C82.58621449 6.90102576 81.62340607 9.22856971 78.625 13.0625 C77.90828125 14.00480469 77.1915625 14.94710938 76.453125 15.91796875 C74.71143952 18.10616914 72.95379523 20.27111241 71.171875 22.42578125 C70.70700684 22.99997803 70.24213867 23.5741748 69.76318359 24.16577148 C68.85041169 25.28963995 67.9212997 26.40046629 66.97509766 27.49633789 C65.52127989 29.20637758 65.52127989 29.20637758 64 32 C65.08064627 35.81475527 67.00278255 38.56800359 69.44140625 41.65234375 C70.10720703 42.51150391 70.77300781 43.37066406 71.45898438 44.25585938 C72.86092326 46.04310365 74.267179 47.82697017 75.67773438 49.60742188 C76.34224609 50.46787109 77.00675781 51.32832031 77.69140625 52.21484375 C78.30185791 52.98948975 78.91230957 53.76413574 79.54125977 54.56225586 C81.28223933 57.47165853 81.87606309 59.61363142 82 63 C80.98114014 64.65924072 80.98114014 64.65924072 79 66 C76.3881779 66.2804392 74.01774619 66.37925334 71.4074707 66.34057617 C70.63650055 66.34101425 69.8655304 66.34145233 69.07119751 66.34190369 C66.52246795 66.33981338 63.97439592 66.31647146 61.42578125 66.29296875 C59.65887308 66.28737364 57.89196026 66.28310314 56.12504578 66.28010559 C51.47410233 66.26865008 46.82343985 66.23917687 42.17260742 66.20599365 C36.59261634 66.16991304 31.01253132 66.15613497 25.43245697 66.13863373 C16.95477589 66.10953988 8.47771132 66.05205781 0 66 C0 44.22 0 22.44 0 0 Z " fill="#0078FE" transform="translate(515,303)"/>
<path d="M0 0 C37.25714286 0 37.25714286 0 46 6 C51.73058487 12.04034622 52.45870884 17.68235458 52.3125 25.76953125 C51.72662615 31.82600213 49.52060893 35.92049703 44.9375 39.875 C42.98492209 41.28750317 41.00517659 42.6632156 39 44 C39.64066406 45.01578125 40.28132813 46.0315625 40.94140625 47.078125 C46.11383115 55.30270144 51.17548513 63.56508658 56 72 C50.69417128 72.75337617 45.22837896 73.52583304 40 72 C36.60485722 68.77047394 34.79123689 65.13019196 32.86230469 60.88720703 C31.43087438 57.75443345 29.8109228 54.75146627 28.125 51.75 C27.57070312 50.67234375 27.01640625 49.5946875 26.4453125 48.484375 C23.40313686 44.86407367 23.40313686 44.86407367 14 45 C14 53.91 14 62.82 14 72 C9.38 72 4.76 72 0 72 C0 48.24 0 24.48 0 0 Z " fill="#052454" transform="translate(151,650)"/>
<path d="M0 0 C4.69434694 3.87921975 7.88955329 8.98890418 9 15 C9.91991524 25.80048639 9.34754587 35.33971684 2.75 44.375 C-3.29540558 50.14561442 -8.59211998 51.43758973 -16.875 51.62890625 C-20 51 -20 51 -28 46 C-28.33 54.25 -28.66 62.5 -29 71 C-33.62 71 -38.24 71 -43 71 C-43 46.91 -43 22.82 -43 -2 C-38.71 -2 -34.42 -2 -30 -2 C-29.67 -0.35 -29.34 1.3 -29 3 C-28.13375 2.21625 -27.2675 1.4325 -26.375 0.625 C-18.17864694 -6.1509078 -8.83192915 -4.94063363 0 0 Z " fill="#052454" transform="translate(565,672)"/>
<path d="M0 0 C4.62 0 9.24 0 14 0 C14 23.76 14 47.52 14 72 C9.71 72 5.42 72 1 72 C0.67 70.35 0.34 68.7 0 67 C-0.721875 67.61875 -1.44375 68.2375 -2.1875 68.875 C-8.11031742 73.35001761 -13.76834663 73.81140571 -21 73 C-28.24861853 70.84863936 -32.06863694 66.37988536 -35.75 59.9375 C-39.17345731 51.89237532 -39.41233497 41.90007859 -36.4375 33.6875 C-33.87284998 28.11256929 -30.25059511 22.69740973 -24.7109375 19.8046875 C-18.96399924 18.09882398 -11.48815871 17.67237047 -5.82421875 19.828125 C-3.62084126 21.29339837 -1.86665082 23.13334918 0 25 C0 16.75 0 8.5 0 0 Z " fill="#012253" transform="translate(357,650)"/>
<path d="M0 0 C4.29 0 8.58 0 13 0 C13 23.76 13 47.52 13 72 C9.04 72 5.08 72 1 72 C0.67 70.35 0.34 68.7 0 67 C-0.721875 67.61875 -1.44375 68.2375 -2.1875 68.875 C-8.33197793 73.51749443 -14.4964191 73.94525629 -22 73 C-28.20447131 70.63009539 -32.90358895 66.01530342 -35.96875 60.14453125 C-39.43845646 51.58270928 -39.48720257 41.00864236 -36.3125 32.375 C-33.77273761 26.96342148 -29.94069903 23.29379935 -25 20 C-19.54902931 18.18300977 -12.30779394 17.71227948 -6.8828125 19.82421875 C-4.67133283 21.30403972 -2.87728666 23.12271334 -1 25 C-0.67 16.75 -0.34 8.5 0 0 Z " fill="#022151" transform="translate(751,650)"/>
<path d="M0 0 C3.74190395 4.47203155 5.1321756 8.28991468 5.11352539 14.03417969 C5.11341209 15.20494049 5.11341209 15.20494049 5.11329651 16.39935303 C5.10813522 17.23178528 5.10297394 18.06421753 5.09765625 18.921875 C5.0962413 19.78186096 5.09482635 20.64184692 5.09336853 21.52789307 C5.08778097 24.26863109 5.07523075 27.00928676 5.0625 29.75 C5.05748339 31.6106759 5.05292077 33.47135309 5.04882812 35.33203125 C5.03781561 39.88805246 5.02055951 44.44401228 5 49 C0.71 49 -3.58 49 -8 49 C-8.01458252 47.99622314 -8.02916504 46.99244629 -8.04418945 45.95825195 C-8.10232052 42.2212425 -8.17955165 38.48482631 -8.26245117 34.74829102 C-8.2956311 33.13348037 -8.32368458 31.51855569 -8.34643555 29.90356445 C-8.38011025 27.57714408 -8.43242963 25.25176217 -8.48828125 22.92578125 C-8.49467117 22.20787918 -8.5010611 21.48997711 -8.50764465 20.75032043 C-8.64745524 15.94501169 -9.53811504 12.46188496 -13 9 C-15.03270562 8.76179079 -15.03270562 8.76179079 -17.375 8.75 C-18.16648437 8.72421875 -18.95796875 8.6984375 -19.7734375 8.671875 C-22.50830433 9.07490801 -23.30948992 9.86352714 -25 12 C-26.55495698 15.10991396 -26.24076956 18.43344049 -26.31640625 21.8515625 C-26.33718735 22.62559418 -26.35796844 23.39962585 -26.37937927 24.19711304 C-26.44483448 26.67298392 -26.50374087 29.14896202 -26.5625 31.625 C-26.60568907 33.30209448 -26.64930348 34.97917807 -26.69335938 36.65625 C-26.80051171 40.77072308 -26.90179045 44.88530414 -27 49 C-31.62 49 -36.24 49 -41 49 C-41.01981934 47.96069336 -41.03963867 46.92138672 -41.06005859 45.85058594 C-41.13622124 41.98885164 -41.224922 38.1274889 -41.31738281 34.26611328 C-41.35562857 32.59594059 -41.39048915 30.92568677 -41.421875 29.25537109 C-41.46762161 26.85224443 -41.52559925 24.44967416 -41.5859375 22.046875 C-41.59748871 21.30193787 -41.60903992 20.55700073 -41.62094116 19.78948975 C-41.72587462 16.09049211 -41.82666101 13.08380486 -44 10 C-47.18770285 8.40614857 -50.53088671 8.61530625 -54 9 C-56.4761387 10.26981472 -57.64511972 10.99667983 -58.57788086 13.63378906 C-59.16918738 16.94838873 -59.23638722 20.25209577 -59.31640625 23.609375 C-59.33718735 24.33618469 -59.35796844 25.06299438 -59.37937927 25.81182861 C-59.44455512 28.12445991 -59.5036104 30.43720093 -59.5625 32.75 C-59.60571566 34.32162575 -59.64933092 35.89324056 -59.69335938 37.46484375 C-59.80020356 41.30978453 -59.90156024 45.15483524 -60 49 C-64.29 49 -68.58 49 -73 49 C-73 31.84 -73 14.68 -73 -3 C-68.71 -3 -64.42 -3 -60 -3 C-60 -1.35 -60 0.3 -60 2 C-59.236875 1.195625 -58.47375 0.39125 -57.6875 -0.4375 C-53.04020253 -4.8686441 -48.31934502 -4.3330155 -42.1796875 -4.28515625 C-37.82500642 -3.89462588 -36.10861001 -3.02459353 -33 0 C-31.625 2.25 -31.625 2.25 -31 4 C-30.34 4 -29.68 4 -29 4 C-28.79375 3.4225 -28.5875 2.845 -28.375 2.25 C-26.19614667 -1.31539635 -22.92463359 -3.25498055 -19.0625 -4.75 C-11.46362336 -5.67107596 -6.34841627 -4.23596416 0 0 Z " fill="#022051" transform="translate(454,673)"/>
<path d="M0 0 C1.12595581 0.01244751 1.12595581 0.01244751 2.2746582 0.02514648 C9.91594885 0.25907204 14.5876923 2.10645298 19.875 7.6875 C26.20461523 15.89702819 26.53205719 24.33705801 25.5625 34.4375 C23.92168522 40.93344366 21.21716384 47.0663595 15.44921875 50.80859375 C8.16190294 55.01877784 1.5791533 56.78333034 -6.8125 54.90625 C-14.31257702 52.57514498 -19.46125591 49.4025017 -23.40234375 42.49609375 C-27.36495445 34.61573209 -27.740918 25.2354947 -25.4375 16.75 C-22.93129674 10.25987931 -18.30580504 4.97026132 -12.19921875 1.70703125 C-7.94594027 0.27160497 -4.4486242 -0.06318927 0 0 Z " fill="#032253" transform="translate(234.4375,668.5625)"/>
<path d="M0 0 C3.88640392 2.91480294 5.86321504 6.36197065 7.203125 10.93359375 C7.57651056 14.01571458 7.55486598 17.04753823 7.49609375 20.1484375 C7.49184891 21.00417862 7.48760406 21.85991974 7.48323059 22.74159241 C7.46655289 25.45175795 7.42892205 28.16115623 7.390625 30.87109375 C7.37556402 32.71808815 7.3618781 34.56509431 7.34960938 36.41210938 C7.31668526 40.91956259 7.26497969 45.42644847 7.203125 49.93359375 C3.573125 49.93359375 -0.056875 49.93359375 -3.796875 49.93359375 C-4.291875 46.96359375 -4.291875 46.96359375 -4.796875 43.93359375 C-5.25578125 44.35511719 -5.7146875 44.77664063 -6.1875 45.2109375 C-6.80109375 45.75878906 -7.4146875 46.30664062 -8.046875 46.87109375 C-8.65015625 47.41636719 -9.2534375 47.96164062 -9.875 48.5234375 C-14.6743459 52.04490878 -21.11103642 51.37986596 -26.796875 50.93359375 C-32.08611487 49.17051379 -34.59696436 46.32204263 -37.796875 41.93359375 C-39.45713961 36.95279992 -39.39590925 32.63085746 -37.671875 27.74609375 C-34.40583177 22.8470289 -30.39848932 19.69049951 -24.796875 17.93359375 C-21.16796875 17.703125 -21.16796875 17.703125 -17.234375 17.74609375 C-15.93371094 17.75253906 -14.63304687 17.75898437 -13.29296875 17.765625 C-10.57166665 17.89636912 -8.36941597 18.11535553 -5.796875 18.93359375 C-6.25509968 15.46417829 -6.68819183 12.25964326 -7.796875 8.93359375 C-10.82468012 8.26734469 -13.691207 7.79833853 -16.796875 7.93359375 C-19.60352887 10.09705611 -21.220909 11.78166176 -22.796875 14.93359375 C-27.086875 14.93359375 -31.376875 14.93359375 -35.796875 14.93359375 C-35.796875 8.64156357 -35.54232586 7.56612508 -31.796875 2.93359375 C-22.80812248 -5.85540871 -10.58990906 -6.28488081 0 0 Z " fill="#032151" transform="translate(304.796875,672.06640625)"/>
<path d="M0 0 C3.72525976 3.31804513 6.72392371 6.72076533 7.15821838 11.87931824 C7.18153481 12.93521904 7.18153481 12.93521904 7.20532227 14.01245117 C7.2352401 15.2133564 7.2352401 15.2133564 7.26576233 16.43852234 C7.28247482 17.29798965 7.29918732 18.15745697 7.31640625 19.04296875 C7.33718735 19.9265657 7.35796844 20.81016266 7.37937927 21.72053528 C7.44475754 24.54277785 7.50370528 27.36511335 7.5625 30.1875 C7.60569637 32.10092106 7.64931102 34.01433273 7.69335938 35.92773438 C7.80042695 40.61839437 7.90172752 45.30914783 8 50 C4.04 50 0.08 50 -4 50 C-4.495 47.03 -4.495 47.03 -5 44 C-5.47050781 44.42152344 -5.94101562 44.84304688 -6.42578125 45.27734375 C-7.04839844 45.82519531 -7.67101562 46.37304688 -8.3125 46.9375 C-8.92738281 47.48277344 -9.54226563 48.02804687 -10.17578125 48.58984375 C-14.91454355 52.25299833 -21.3236933 51.41350579 -27 51 C-32.68707573 49.07045645 -35.34541861 45.83642524 -38.3125 40.75 C-39.66173683 35.35305269 -38.80303662 30.63695927 -36.375 25.6875 C-32.3842162 21.17161307 -27.99415265 18.90793783 -22 18 C-19.98075149 17.9097839 -17.95875638 17.86988936 -15.9375 17.875 C-14.40416016 17.87113281 -14.40416016 17.87113281 -12.83984375 17.8671875 C-10.38350068 17.98206462 -8.34231684 18.29224959 -6 19 C-6.22860058 17.53815942 -6.48370392 16.08044581 -6.75 14.625 C-6.88921875 13.81289063 -7.0284375 13.00078125 -7.171875 12.1640625 C-7.81742189 9.86865984 -7.81742189 9.86865984 -9.85546875 8.7109375 C-13.26820632 7.57957459 -15.58193583 8.00565406 -19 9 C-19.99 10.98 -20.98 12.96 -22 15 C-26.62 15 -31.24 15 -36 15 C-35.79789155 9.23990914 -34.96217787 5.75875414 -30.9296875 1.54296875 C-21.58996464 -5.92502827 -10.07713267 -5.87548075 0 0 Z " fill="#032151" transform="translate(505,672)"/>
<path d="M0 0 C7.08162834 4.16804411 11.24607736 10.2818064 13.36328125 18.08203125 C13.36328125 22.04203125 13.36328125 26.00203125 13.36328125 30.08203125 C1.81328125 30.08203125 -9.73671875 30.08203125 -21.63671875 30.08203125 C-19.81839245 38.73793214 -19.81839245 38.73793214 -16.01171875 40.70703125 C-11.79906623 41.17510375 -7.71515732 41.37230091 -3.63671875 40.08203125 C-3.01539063 39.40914062 -2.3940625 38.73625 -1.75390625 38.04296875 C0.36328125 36.08203125 0.36328125 36.08203125 3.37890625 35.69140625 C4.44625 35.7378125 5.51359375 35.78421875 6.61328125 35.83203125 C7.6909375 35.868125 8.76859375 35.90421875 9.87890625 35.94140625 C10.69875 35.9878125 11.51859375 36.03421875 12.36328125 36.08203125 C11.36614952 42.08538106 9.19746096 45.94029317 4.30078125 49.640625 C-2.73047146 53.72291481 -9.66759713 54.09005857 -17.63671875 53.08203125 C-23.8569639 51.4035524 -28.24929256 47.48387361 -31.63671875 42.08203125 C-36.26959977 32.83065703 -37.21316841 24.11466919 -33.94921875 14.26953125 C-31.27965369 7.73979371 -27.88583254 2.76627405 -21.2734375 -0.21875 C-14.63940953 -1.97799594 -6.52700964 -2.27236632 0 0 Z " fill="#022050" transform="translate(807.63671875,669.91796875)"/>
<path d="M0 0 C14.85 0 29.7 0 45 0 C45 4.29 45 8.58 45 13 C34.77 13 24.54 13 14 13 C14 19.27 14 25.54 14 32 C23.57 32 33.14 32 43 32 C43 35.96 43 39.92 43 44 C33.43 44 23.86 44 14 44 C14 53.24 14 62.48 14 72 C9.38 72 4.76 72 0 72 C0 48.24 0 24.48 0 0 Z " fill="#002558" transform="translate(582,650)"/>
<path d="M0 0 C4.71213394 4.75249483 6.27988003 10.28875372 6.27740479 16.84484863 C6.25675964 17.67850952 6.2361145 18.51217041 6.21484375 19.37109375 C6.20918396 20.24761597 6.20352417 21.12413818 6.19769287 22.02722168 C6.17548511 24.79867563 6.12532035 27.5687874 6.07421875 30.33984375 C6.05413349 32.23044994 6.03588629 34.12107661 6.01953125 36.01171875 C5.97567182 40.62160281 5.90675527 45.23049655 5.82421875 49.83984375 C1.53421875 49.83984375 -2.75578125 49.83984375 -7.17578125 49.83984375 C-7.19036377 48.83606689 -7.20494629 47.83229004 -7.2199707 46.7980957 C-7.27810177 43.06108625 -7.3553329 39.32467006 -7.43823242 35.58813477 C-7.47141235 33.97332412 -7.49946583 32.35839944 -7.5222168 30.7434082 C-7.5558915 28.41698783 -7.60821088 26.09160592 -7.6640625 23.765625 C-7.67045242 23.04772293 -7.67684235 22.32982086 -7.6834259 21.59016418 C-7.81121981 17.19787041 -8.47861068 14.33975842 -11.17578125 10.83984375 C-14.3052059 9.27513142 -17.78660348 9.14282417 -21.17578125 9.83984375 C-23.42948134 11.31475252 -23.42948134 11.31475252 -25.17578125 13.83984375 C-25.59360724 16.71678873 -25.78054403 19.22691371 -25.78515625 22.10546875 C-25.8016925 22.89886658 -25.81822876 23.6922644 -25.83526611 24.50970459 C-25.88373741 27.03649644 -25.90511412 29.56268656 -25.92578125 32.08984375 C-25.95394182 33.80601984 -25.98386937 35.52216791 -26.015625 37.23828125 C-26.08949561 41.43875253 -26.13907512 45.63888995 -26.17578125 49.83984375 C-30.79578125 49.83984375 -35.41578125 49.83984375 -40.17578125 49.83984375 C-40.17578125 32.67984375 -40.17578125 15.51984375 -40.17578125 -2.16015625 C-35.88578125 -2.16015625 -31.59578125 -2.16015625 -27.17578125 -2.16015625 C-26.84578125 -0.84015625 -26.51578125 0.47984375 -26.17578125 1.83984375 C-25.716875 1.49050781 -25.25796875 1.14117188 -24.78515625 0.78125 C-24.1715625 0.32621094 -23.55796875 -0.12882813 -22.92578125 -0.59765625 C-22.3225 -1.05011719 -21.71921875 -1.50257813 -21.09765625 -1.96875 C-14.25663206 -6.20962882 -6.45082081 -3.80016907 0 0 Z " fill="#022152" transform="translate(700.17578125,672.16015625)"/>
<path d="M0 0 C0 4.29 0 8.58 0 13 C-3.02734375 13.390625 -6.0546875 13.78125 -9.08203125 14.171875 C-12.07021265 14.7557482 -12.07021265 14.7557482 -13.82421875 16.890625 C-16.10270226 20.97826984 -16.18464359 24.46252554 -16.31640625 29.07421875 C-16.33718735 29.7580513 -16.35796844 30.44188385 -16.37937927 31.1464386 C-16.44466154 33.3266921 -16.50366017 35.50706405 -16.5625 37.6875 C-16.60570553 39.16732986 -16.64932047 40.64714783 -16.69335938 42.12695312 C-16.80032083 45.75117622 -16.90164823 49.37553189 -17 53 C-21.29 53 -25.58 53 -30 53 C-30 35.84 -30 18.68 -30 1 C-26.04 1 -22.08 1 -18 1 C-17.67 2.32 -17.34 3.64 -17 5 C-16.52691406 4.6390625 -16.05382812 4.278125 -15.56640625 3.90625 C-10.11387478 0.07991213 -6.62117998 -0.51727969 0 0 Z " fill="#011F4E" transform="translate(860,669)"/>
<path d="M0 0 C4.62 0 9.24 0 14 0 C14 17.16 14 34.32 14 52 C9.38 52 4.76 52 0 52 C0 34.84 0 17.68 0 0 Z " fill="#062656" transform="translate(636,670)"/>
<path d="M0 0 C3.31169787 2.57576501 4.92446761 4.77340283 6.25 8.75 C6.71448071 14.32376855 6.44880636 19.55282133 4.25 24.75 C1.49166485 27.9910438 -0.03712304 29.41290581 -4.19140625 30.23046875 C-8.75312713 30.48200925 -11.02592302 30.29305773 -14.75 27.5 C-19.23193 21.33734625 -19.41555865 16.2829138 -18.75 8.75 C-17.38393574 5.04211129 -15.8690753 2.21926794 -12.75 -0.25 C-8.23047673 -1.75650776 -4.39040622 -1.99563919 0 0 Z " fill="#FBFBFC" transform="translate(351.75,681.25)"/>
<path d="M0 0 C3.46934105 1.38773642 4.68450271 2.47468169 6.609375 5.6796875 C9.06619941 11.54570084 9.42054481 19.12831905 7.203125 25.171875 C5.49931217 27.81933802 3.61924604 29.25383598 1 31 C-3.79689791 31.69920885 -7.77459282 31.71482085 -12 29.25 C-15.81361031 24.9596884 -16.29412006 21.80316754 -16.3125 16.0625 C-16.32925781 14.85722656 -16.34601562 13.65195312 -16.36328125 12.41015625 C-15.85380061 7.62761221 -14.06016718 5.12074816 -10.8125 1.6875 C-7.07695812 -0.55382513 -4.25263446 -0.6987087 0 0 Z " fill="#FCFCFC" transform="translate(743,680)"/>
<path d="M0 0 C3.7938942 2.10957194 6.44143401 4.94345838 8 9 C8.65260315 15.55993298 9.18379837 22.56106211 5 28 C1.97233896 30.55669154 -0.08495982 31.8474933 -4 32.5 C-8.95702937 31.67382844 -11.88536267 29.4861831 -14.875 25.5 C-16.89716673 19.2088146 -16.93793135 12.76442924 -14.8125 6.5 C-10.85989954 1.04813729 -6.8866429 -1.57678517 0 0 Z " fill="#FCFCFC" transform="translate(552,680)"/>
<path d="M0 0 C2.7186069 2.2173035 4.43016975 4.8603395 6 8 C7.04465723 21.35791213 7.04465723 21.35791213 4.3125 25.6875 C1.03085932 28.96914068 -1.2930618 30.74577516 -5.9375 31.4375 C-9.95953977 30.86292289 -11.93164583 29.65924028 -15 27 C-18.51100797 21.26535365 -18.71977971 15.6179746 -18 9 C-16.70735542 5.05025268 -15.40966431 3.38040258 -12.375 0.5625 C-7.94792503 -1.48707175 -4.61248159 -1.63942716 0 0 Z " fill="#FCFCFC" transform="translate(240,681)"/>
<path d="M0 0 C2.536875 -0.061875 5.07375 -0.12375 7.6875 -0.1875 C8.47729248 -0.21481201 9.26708496 -0.24212402 10.08081055 -0.27026367 C15.70273234 -0.33637048 18.76523977 0.91936117 22.8125 4.6875 C24.5564679 8.08364801 24.68081506 11.3104216 24 15 C22.20636089 17.8100346 20.98119065 19.50940468 18 21 C16.62451844 21.08308638 15.24514204 21.10736016 13.8671875 21.09765625 C13.14128418 21.09515869 12.41538086 21.09266113 11.66748047 21.09008789 C10.74596191 21.08098389 9.82444336 21.07187988 8.875 21.0625 C5.94625 21.041875 3.0175 21.02125 0 21 C0 14.07 0 7.14 0 0 Z " fill="#FDFEFE" transform="translate(165,662)"/>
<path d="M0 0 C14.85 0 29.7 0 45 0 C45 4.29 45 8.58 45 13 C34.77 13 24.54 13 14 13 C14 19.27 14 25.54 14 32 C23.57 32 33.14 32 43 32 C43 35.96 43 39.92 43 44 C33.43 44 23.86 44 14 44 C14 53.24 14 62.48 14 72 C9.38 72 4.76 72 0 72 C0 48.24 0 24.48 0 0 Z M2 2 C2 24.77 2 47.54 2 71 C5.63 71 9.26 71 13 71 C13 61.76 13 52.52 13 43 C22.57 43 32.14 43 42 43 C42 39.7 42 36.4 42 33 C32.43 33 22.86 33 13 33 C13 26.07 13 19.14 13 12 C23.23 12 33.46 12 44 12 C44 8.7 44 5.4 44 2 C30.14 2 16.28 2 2 2 Z " fill="#0F1B42" transform="translate(582,650)"/>
<path d="M0 0 C0.69738281 0.01804687 1.39476562 0.03609375 2.11328125 0.0546875 C3.82611539 0.10161446 5.53823824 0.17335395 7.25 0.25 C7.46875 6.8984375 7.46875 6.8984375 5.5 10.0625 C2.78624974 12.70086831 0.80903855 14.19413002 -3.0390625 14.33203125 C-4.19535156 14.19861328 -4.19535156 14.19861328 -5.375 14.0625 C-6.15101563 13.98644531 -6.92703125 13.91039062 -7.7265625 13.83203125 C-9.75 13.25 -9.75 13.25 -11.75 10.25 C-12.195239 6.7622945 -12.26663107 4.98036422 -10.2109375 2.07421875 C-6.87103984 -0.40154666 -3.97937861 -0.19558383 0 0 Z " fill="#FBFBFC" transform="translate(491.75,698.75)"/>
<path d="M0 0 C0.69738281 0.01804687 1.39476562 0.03609375 2.11328125 0.0546875 C3.82611539 0.10161446 5.53823824 0.17335395 7.25 0.25 C7.5546875 6.890625 7.5546875 6.890625 4.8125 10.125 C3.966875 10.82625 3.12125 11.5275 2.25 12.25 C1.92 12.58 1.59 12.91 1.25 13.25 C-0.37139437 13.37494616 -1.99884122 13.42571624 -3.625 13.4375 C-4.50929688 13.45167969 -5.39359375 13.46585938 -6.3046875 13.48046875 C-8.75 13.25 -8.75 13.25 -11.75 11.25 C-12.23868818 7.48011979 -12.42194523 5.21283798 -10.20703125 2.0390625 C-6.86564261 -0.39393591 -3.96004808 -0.19463374 0 0 Z " fill="#FBFCFC" transform="translate(291.75,698.75)"/>
<path d="M0 0 C3.50220557 2.08642034 5.62821628 4.13406405 7 8 C7 8.99 7 9.98 7 11 C-0.59 11 -8.18 11 -16 11 C-15.01221524 6.06107618 -14.26400276 4.56073029 -11 1 C-7.53749757 -0.73125121 -3.78591771 -0.47815224 0 0 Z " fill="#F8F9FB" transform="translate(802,680)"/>
<path d="M0 0 C2.9375 2.0625 2.9375 2.0625 5 5 C5.06625411 8.8427383 4.81899419 10.99200716 2.375 14 C-1.08383253 15.45635054 -3.41298371 14.91305869 -7 14 C-8.9375 12.875 -8.9375 12.875 -10 11 C-10.50030235 7.06905293 -10.5996142 4.8994213 -8.375 1.5625 C-5.24316508 -0.49791771 -3.68455227 -0.6767545 0 0 Z " fill="#052252" transform="translate(646,648)"/>
<path d="M0 0 C4.62 0 9.24 0 14 0 C14 23.1 14 46.2 14 70 C13.67 70 13.34 70 13 70 C13 47.56 13 25.12 13 2 C9.37 2 5.74 2 2 2 C2 9.92 2 17.84 2 26 C0.07129883 22.14259767 -0.24283376 20.88370357 -0.1953125 16.796875 C-0.18886719 15.8171875 -0.18242187 14.8375 -0.17578125 13.828125 C-0.15902344 12.81234375 -0.14226562 11.7965625 -0.125 10.75 C-0.11597656 9.71875 -0.10695313 8.6875 -0.09765625 7.625 C-0.07412138 5.08323384 -0.03825131 2.54158728 0 0 Z " fill="#173360" transform="translate(357,650)"/>
<path d="M0 0 C1.32 0.66 2.64 1.32 4 2 C2.54758264 5.33234574 0.7149914 7.54225606 -1.84375 10.109375 C-2.59527344 10.86347656 -3.34679687 11.61757813 -4.12109375 12.39453125 C-4.90613281 13.17183594 -5.69117188 13.94914063 -6.5 14.75 C-7.28503906 15.54277344 -8.07007813 16.33554687 -8.87890625 17.15234375 C-9.63042969 17.90128906 -10.38195312 18.65023437 -11.15625 19.421875 C-11.84525391 20.10862305 -12.53425781 20.79537109 -13.24414062 21.50292969 C-15 23 -15 23 -17 23 C-17.73999023 20.77661133 -17.73999023 20.77661133 -18 18 C-16.46118164 15.7800293 -16.46118164 15.7800293 -14.16015625 13.57421875 C-13.34482422 12.77822266 -12.52949219 11.98222656 -11.68945312 11.16210938 C-10.38911133 9.93717773 -10.38911133 9.93717773 -9.0625 8.6875 C-8.19947266 7.85154297 -7.33644531 7.01558594 -6.44726562 6.15429688 C-4.3109645 4.08881236 -2.16195651 2.03856078 0 0 Z " fill="#FBFCFC" transform="translate(549,527)"/>
<path d="M0 0 C0.99 0 1.98 0 3 0 C2.65141673 9.01087757 1.07334355 17.38998468 -4 25 C-5.32 24.67 -6.64 24.34 -8 24 C-6.7524258 20.1533129 -5.40018094 16.35552746 -4 12.5625 C-2.47915727 8.40855643 -1.13948154 4.27305577 0 0 Z " fill="#F7F8F9" transform="translate(574,485)"/>
<path d="M0 0 C3 1 3 1 4.53515625 3.546875 C5.03917969 4.60390625 5.54320312 5.6609375 6.0625 6.75 C6.56910156 7.79671875 7.07570313 8.8434375 7.59765625 9.921875 C11 17.38997214 11 17.38997214 11 22 C10.01 22.33 9.02 22.66 8 23 C7.62875 21.783125 7.2575 20.56625 6.875 19.3125 C4.77975504 12.97615532 1.87210465 7.01375958 -1 1 C-0.67 0.67 -0.34 0.34 0 0 Z " fill="#F6F7F8" transform="translate(565,441)"/>
<path d="M0 0 C1.03348696 3.10046087 1.17755913 4.05610218 0 7 C-0.99 7.33 -1.98 7.66 -3 8 C-3.33 7.34 -3.66 6.68 -4 6 C-4.721875 6.28875 -5.44375 6.5775 -6.1875 6.875 C-10.09375 8.4375 -10.09375 8.4375 -14 10 C-9.93265026 5.40783094 -5.43614072 2.7832093 0 0 Z " fill="#066BFD" transform="translate(460,402)"/>
<path d="M0 0 C4.22489602 0.53280216 6.54080716 1.87678199 9.8125 4.5625 C10.60269531 5.20316406 11.39289062 5.84382813 12.20703125 6.50390625 C12.79871094 6.99761719 13.39039063 7.49132812 14 8 C13.67 8.66 13.34 9.32 13 10 C9.93124691 8.5360077 7.09565257 6.85990364 4.25 5 C3.45078125 4.484375 2.6515625 3.96875 1.828125 3.4375 C0.92320312 2.7259375 0.92320312 2.7259375 0 2 C0 1.34 0 0.68 0 0 Z " fill="#F0F3F6" transform="translate(537,416)"/>
<path d="M0 0 C3 1 3 1 4.16796875 2.84765625 C4.50441406 3.57855469 4.84085938 4.30945313 5.1875 5.0625 C5.53167969 5.79597656 5.87585938 6.52945312 6.23046875 7.28515625 C6.48441406 7.85105469 6.73835937 8.41695313 7 9 C6.01 9.99 5.02 10.98 4 12 C2.35 8.37 0.7 4.74 -1 1 C-0.67 0.67 -0.34 0.34 0 0 Z " fill="#EAEEF0" transform="translate(565,441)"/>
<path d="M0 0 C0.87374641 2.52415628 0.99596697 4.0231227 0.53125 6.6875 C-0.0491661 10.30656512 -0.09705637 13.71202464 -0.0625 17.375 C-0.05347656 18.62023437 -0.04445313 19.86546875 -0.03515625 21.1484375 C-0.02355469 22.08945312 -0.01195312 23.03046875 0 24 C-2.65112038 20.05488039 -2.29626525 16.00619381 -2.25 11.4375 C-2.25773437 10.66986328 -2.26546875 9.90222656 -2.2734375 9.11132812 C-2.25989467 5.22792179 -2.19983549 3.29975323 0 0 Z " fill="#0359FB" transform="translate(459,469)"/>
<path d="M0 0 C3 1 3 1 4 2.6875 C4 6.49449685 1.53384038 8.28075667 -1 11 C-1.66 9.68 -2.32 8.36 -3 7 C-2.34 6.34 -1.68 5.68 -1 5 C-0.01 5 0.98 5 2 5 C1.34 3.35 0.68 1.7 0 0 Z " fill="#0970FD" transform="translate(580,324)"/>
<path d="M0 0 C3.29696105 1.09898702 4.04670589 1.94597387 6.1875 4.5625 C6.71730469 5.20316406 7.24710937 5.84382812 7.79296875 6.50390625 C8.19128906 6.99761719 8.58960938 7.49132812 9 8 C8.67 8.66 8.34 9.32 8 10 C6.66070495 8.71451591 5.32871357 7.42141845 4 6.125 C2.88625 5.04605469 2.88625 5.04605469 1.75 3.9453125 C0 2 0 2 0 0 Z " fill="#0763FD" transform="translate(448,554)"/>
<path d="M0 0 C0.66 0.33 1.32 0.66 2 1 C1.25 2.9375 1.25 2.9375 0 5 C-2.125 5.75 -2.125 5.75 -4 6 C-4 5.01 -4 4.02 -4 3 C-2 1.3125 -2 1.3125 0 0 Z " fill="#11234E" transform="translate(783,672)"/>
<path d="M0 0 C0.33 0.99 0.66 1.98 1 3 C-1.36292656 5.52588702 -2.66462511 6.88820837 -6 8 C-4.55746343 4.63408134 -2.66735273 2.48952921 0 0 Z " fill="#071640" transform="translate(330,671)"/>
<path d="M0 0 C-1.2491742 3.45925163 -2.67527795 6.14693203 -5 9 C-5.36666667 3.5 -5.36666667 3.5 -3.625 1.125 C-2 0 -2 0 0 0 Z " fill="#061239" transform="translate(641,649)"/>
<path d="M0 0 C0.66 1.32 1.32 2.64 2 4 C0.35 5.65 -1.3 7.3 -3 9 C-3.66 8.67 -4.32 8.34 -5 8 C-3.35 5.36 -1.7 2.72 0 0 Z " fill="#05133C" transform="translate(548,492)"/>
</svg>
